<?xml version="1.0" encoding="UTF-8"?>
<svg xmlns="http://www.w3.org/2000/svg" width="32" height="32" viewBox="0 0 32 32">
  <path fill="#E34F26" d="M5.902 27.201L3.655 2h24.69l-2.25 25.197L15.985 30 5.902 27.201z"/>
  <path fill="#EF652A" d="M16 27.858l8.17-2.265 1.922-21.532H16v23.797z"/>
  <path fill="#FFF" d="M16 13.407h-4.09l-.282-3.165H16V7.151H8.25l.074.83.759 8.517H16v-3.091zm0 8.027l-.014.004-3.442-.929-.22-2.465H9.221l.433 4.852 6.332 1.758.014-.004v-3.216z"/>
  <path fill="#EBEBEB" d="M16 13.407v3.091h3.809l-.359 4.01-3.45.932v3.216l6.338-1.756.047-.522.726-8.137.076-.832H16z"/>
</svg>
