<?xml version="1.0" encoding="UTF-8"?>
<svg xmlns="http://www.w3.org/2000/svg" width="32" height="32" viewBox="0 0 32 32">
  <path fill="#B07219" d="M11.622 24.74s-1.23.748.855.962c2.51.32 3.847.267 6.625-.267 0 0 .748.48 1.76.855-6.25 2.672-14.16-.16-9.24-1.55zm-.8-3.473s-1.336 1.015.748 1.23c2.725.267 4.862.32 8.55-.427 0 0 .534.534 1.336.748-7.585 2.24-16.03.214-10.634-1.55zm14.747 6.09s.908.748-1.015 1.336c-3.58 1.07-15.014 1.39-18.22 0-1.122-.48 1.015-1.175 1.7-1.282.748-.16 1.175-.16 1.175-.16-1.336-.908-8.817 1.92-3.793 2.725 13.7 2.24 24.972-.908 20.153-2.62zM12.1 17.633s-6.25 1.495-2.218 2.03c1.708.214 5.08.16 8.246-.053 2.563-.267 5.133-.855 5.133-.855s-.908.374-1.55.748c-6.25 1.655-18.332.908-14.85-.855 2.99-1.495 5.24-1.015 5.24-1.015zm10.42 5.826c6.357-3.313 3.42-6.464 1.388-6.09-.534.107-.748.214-.748.214s.16-.374.534-.534c3.793-1.336 6.625 4.22-1.28 6.464 0 0 .053-.053.106-.053zm-9.83 8.443c6.09.374 15.44-.214 15.65-2.94 0 0-.427 1.015-5.027 1.815-5.24.908-11.622.8-15.44.214 0 0 .748.64 4.816.908z"/>
</svg>
