<?xml version="1.0" encoding="UTF-8"?>
<svg xmlns="http://www.w3.org/2000/svg" width="32" height="32" viewBox="0 0 32 32">
  <path fill="#F7DF1E" d="M2 2h28v28H2z"/>
  <path d="M20.809 23.875c.69 1.127 1.589 1.956 3.178 1.956 1.334 0 2.187-.667 2.187-1.588 0-1.103-.877-1.494-2.344-2.135l-.805-.345c-2.323-.988-3.867-2.227-3.867-4.845 0-2.41 1.835-4.244 4.706-4.244 2.043 0 3.511.71 4.572 2.573l-2.503 1.607c-.551-.988-1.146-1.377-2.07-1.377-.942 0-1.539.597-1.539 1.377 0 .964.597 1.354 1.972 1.95l.805.345c2.736 1.173 4.279 2.367 4.279 5.057 0 2.894-2.274 4.482-5.325 4.482-2.983 0-4.909-1.42-5.853-3.283l2.607-1.53zM12.297 24.17c.506.899 .969 1.657 2.077 1.657 1.061 0 1.73-.415 1.73-2.027V14.554h3.207v9.292c0 3.322-1.946 4.831-4.786 4.831-2.571 0-4.055-1.334-4.813-2.937l2.585-1.57z"/>
</svg>
