<?xml version="1.0" encoding="UTF-8"?>
<svg xmlns="http://www.w3.org/2000/svg" width="32" height="32" viewBox="0 0 32 32">
  <path d="M15.885 2.1c-7.1 0-6.651 3.07-6.651 3.07v3.19h6.752v1H6.545S2 8.8 2 16.005s4.013 6.912 4.013 6.912h2.396v-3.326s-.13-4.013 3.946-4.013h6.812s3.842.064 3.842-3.716V5.562s.23-3.462-7.124-3.462zM12.123 4.56a1.216 1.216 0 1 1 0 2.432 1.216 1.216 0 1 1 0-2.432z" fill="#3572A5"/>
  <path d="M16.115 29.9c7.1 0 6.651-3.07 6.651-3.07v-3.19h-6.752v-1h9.441S30 23.2 30 15.995s-4.013-6.912-4.013-6.912h-2.396v3.326s.13 4.013-3.946 4.013h-6.812S8.991 16.358 8.991 20.138v6.3s-.23 3.462 7.124 3.462zm3.762-2.46a1.216 1.216 0 1 1 0-2.432 1.216 1.216 0 1 1 0 2.432z" fill="#3572A5"/>
</svg>
