<?xml version="1.0" encoding="UTF-8"?>
<svg xmlns="http://www.w3.org/2000/svg" width="32" height="32" viewBox="0 0 32 32">
  <path fill="#DEA584" d="M16 2c-7.732 0-14 6.268-14 14s6.268 14 14 14 14-6.268 14-14-6.268-14-14-14zm0 25.5c-6.351 0-11.5-5.149-11.5-11.5S9.649 4.5 16 4.5 27.5 9.649 27.5 16 22.351 27.5 16 27.5z"/>
  <path fill="#DEA584" d="M16 7.5l-1.5 2.598h3L16 7.5zm0 17l1.5-2.598h-3L16 24.5zm-8.5-8.5l2.598-1.5v3l-2.598-1.5zm17 0l-2.598 1.5v-3l2.598 1.5zm-12.5-5l.366 2.634 2.634-.366L14.634 9 12 9.366zm8 10l-.366-2.634-2.634.366L17.366 23 20 22.634zM9.366 20l2.634-.366.366 2.634L9 22.634 9.366 20zm10-8l-2.634.366-.366-2.634L20 9.366 19.634 12z"/>
</svg>
